HIERARCHY
ROOT Hips
{
	OFFSET -0.001795 -0.223333 0.028219
	CHANNELS 6 Xposition Yposition Zposition Zrotation Yrotation Xrotation 
	JOINT LeftUpLeg
	{
		OFFSET 0.069520 -0.091406 -0.006815
		CHANNELS 3 Zrotation Yrotation Xrotation
		JOINT LeftLeg
		{
			OFFSET 0.034277 -0.375199 -0.004496
			CHANNELS 3 Zrotation Yrotation Xrotation
			JOINT LeftFoot
			{
				OFFSET -0.013596 -0.397961 -0.043693
				CHANNELS 3 Zrotation Yrotation Xrotation
				JOINT LeftToe
				{
					OFFSET 0.026358 -0.055791 0.119288
					CHANNELS 3 Zrotation Yrotation Xrotation
					End Site
					{
						OFFSET 0.000000 0.000000 0.000000
					}
				}
			}
		}
	}
	JOINT RightUpLeg
	{
		OFFSET -0.067670 -0.090522 -0.004320
		CHANNELS 3 Zrotation Yrotation Xrotation
		JOINT RightLeg
		{
			OFFSET -0.038290 -0.382569 -0.008850
			CHANNELS 3 Zrotation Yrotation Xrotation
			JOINT RightFoot
			{
				OFFSET 0.015774 -0.398415 -0.042312
				CHANNELS 3 Zrotation Yrotation Xrotation
				JOINT RightToe
				{
					OFFSET -0.025372 -0.048144 0.123348
					CHANNELS 3 Zrotation Yrotation Xrotation
					End Site
					{
						OFFSET 0.000000 0.000000 0.000000
					}
				}
			}
		}
	}
	JOINT Spine
	{
		OFFSET -0.002533 0.108963 -0.026696
		CHANNELS 3 Zrotation Yrotation Xrotation
		JOINT Spine1
		{
			OFFSET 0.005487 0.135180 0.001092
			CHANNELS 3 Zrotation Yrotation Xrotation
			JOINT Spine2
			{
				OFFSET 0.001457 0.052922 0.025425
				CHANNELS 3 Zrotation Yrotation Xrotation
				JOINT Neck
				{
					OFFSET -0.002778 0.213870 -0.042857
					CHANNELS 3 Zrotation Yrotation Xrotation
					JOINT Head
					{
						OFFSET 0.005152 0.064970 0.051349
						CHANNELS 3 Zrotation Yrotation Xrotation
						End Site
						{
							OFFSET 0.000000 0.000000 0.000000
						}
					}
				}
				JOINT LeftShoulder
				{
					OFFSET 0.078845 0.121749 -0.034090
					CHANNELS 3 Zrotation Yrotation Xrotation
					JOINT LeftArm
					{
						OFFSET 0.090977 0.030469 -0.008868
						CHANNELS 3 Zrotation Yrotation Xrotation
						JOINT LeftForeArm
						{
							OFFSET 0.259612 -0.012772 -0.027456
							CHANNELS 3 Zrotation Yrotation Xrotation
							JOINT LeftHand
							{
								OFFSET 0.249234 0.008986 -0.001171
								CHANNELS 3 Zrotation Yrotation Xrotation
								End Site
								{
									OFFSET 0.000000 0.000000 0.000000
								}
							}
						}
					}
				}
				JOINT RightShoulder
				{
					OFFSET -0.081759 0.118833 -0.038615
					CHANNELS 3 Zrotation Yrotation Xrotation
					JOINT RightArm
					{
						OFFSET -0.096012 0.032551 -0.009143
						CHANNELS 3 Zrotation Yrotation Xrotation
						JOINT RightForeArm
						{
							OFFSET -0.253742 -0.013329 -0.021401
							CHANNELS 3 Zrotation Yrotation Xrotation
							JOINT RightHand
							{
								OFFSET -0.255298 0.007772 -0.005559
								CHANNELS 3 Zrotation Yrotation Xrotation
								End Site
								{
									OFFSET 0.000000 0.000000 0.000000
								}
							}
						}
					}
				}
			}
		}
	}
}
MOTION
Frames: 13
Frame Time: 0.050000
0.652790 0.933475 -0.148071 -3.091369 10.870872 1.390142 -1.056168 -0.164848 -2.162457 0.112112 -0.316602 6.654246 4.442904 6.857635 -4.762201 0.000000 0.000000 0.000000 2.780665 1.742311 -15.575476 -2.251439 0.954102 24.633938 2.253423 10.386033 -7.621458 0.000000 0.000000 0.000000 8.152952 -0.513207 2.923497 1.799181 -1.201361 3.687615 -3.292999 1.584695 5.316447 5.727966 0.084532 -27.719964 0.000000 0.000000 0.000000 -13.696845 -28.760897 11.032144 -54.592900 -32.721261 8.991516 -16.497673 -69.462365 12.512664 0.000000 0.000000 0.000000 8.775914 22.329582 10.422507 61.875905 44.754871 20.310932 -15.852922 62.468931 -5.051568 0.000000 0.000000 0.000000 
0.658430 0.934370 -0.141831 -2.060622 16.064771 1.767259 -0.498491 -0.362366 -4.366889 -2.908007 -0.099141 10.279026 2.889428 3.302442 -4.272309 0.000000 0.000000 0.000000 4.517059 1.757834 -14.344341 -3.835840 1.123438 22.147730 2.042187 8.692206 -7.279636 0.000000 0.000000 0.000000 8.603416 -0.535554 2.531310 1.445566 -1.139738 4.025802 -4.455170 4.123876 3.326770 7.380352 -0.160802 -26.763333 0.000000 0.000000 0.000000 -15.592587 -30.845545 10.851331 -55.865876 -31.983221 9.251837 -18.552420 -67.227748 11.565409 0.000000 0.000000 0.000000 8.766935 19.370388 9.927063 65.132187 47.615147 24.786714 -15.641714 57.142260 -3.673372 0.000000 0.000000 0.000000 
0.661638 0.932629 -0.136839 -0.719796 23.613204 0.364556 1.442023 -0.751527 -8.611311 -6.459116 -0.311803 20.192574 2.436890 2.001130 -4.089827 0.000000 0.000000 0.000000 3.860220 1.253326 -10.199690 -3.600385 0.623416 19.974359 1.359233 4.979731 -5.930316 0.000000 0.000000 0.000000 8.509432 -0.767797 4.390687 2.316562 -1.394847 1.844186 -6.339544 3.508552 5.020305 7.631561 0.182591 -26.789275 0.000000 0.000000 0.000000 -14.542683 -30.697511 9.700170 -57.295530 -33.779861 10.083821 -21.946735 -65.604608 12.364694 0.000000 0.000000 0.000000 10.981181 19.922118 11.564915 62.605120 51.952778 26.558798 -16.677222 53.971982 -3.569671 0.000000 0.000000 0.000000 
0.663555 0.928297 -0.133406 -0.396891 27.511262 -0.302457 3.580573 -1.403069 -15.034707 -8.698972 -1.078413 30.777492 6.288247 9.160813 -6.010247 0.000000 0.000000 0.000000 3.676542 1.127584 -9.114643 -3.685753 0.371942 20.621955 0.742087 2.948002 -7.449377 0.000000 0.000000 0.000000 8.093370 -0.820614 4.992057 1.630856 -1.104216 1.963093 -5.651274 5.096339 5.269736 6.790762 1.042268 -27.002580 0.000000 0.000000 0.000000 -12.466225 -30.844705 8.911915 -59.486934 -34.917893 10.543636 -25.921909 -65.946773 13.911877 0.000000 0.000000 0.000000 9.429152 20.000396 11.694013 62.156052 53.549047 28.107901 -17.376796 52.711315 -3.586713 0.000000 0.000000 0.000000 
0.666935 0.924983 -0.129566 -0.786999 31.167538 -0.722691 5.773275 -1.929201 -19.590642 -9.485048 -1.837689 35.169353 5.380693 7.618005 -5.335371 0.000000 0.000000 0.000000 2.931902 1.082383 -9.682288 -1.796367 -0.770973 22.852850 -0.177413 -0.329023 -8.496807 0.000000 0.000000 0.000000 7.971023 -0.820552 4.987454 0.635919 -0.832259 3.038008 -4.070911 6.871583 4.839810 7.608763 0.974091 -26.737196 0.000000 0.000000 0.000000 -14.228170 -31.848021 8.585640 -58.075384 -33.036294 9.529816 -34.458909 -65.786088 18.429362 0.000000 0.000000 0.000000 8.805630 17.833558 10.862053 62.471738 51.538023 27.421182 -13.018445 55.445240 -1.191592 0.000000 0.000000 0.000000 
0.674136 0.923316 -0.124382 -0.734496 34.579392 -1.151544 7.255100 -2.387348 -22.727240 -9.430171 -2.085198 34.120826 5.930099 10.469667 -2.372478 0.000000 0.000000 0.000000 1.680453 0.857631 -8.769044 0.628821 -2.137256 23.628572 -1.138851 -4.008439 -9.343292 0.000000 0.000000 0.000000 7.825637 -0.863440 5.307680 1.744430 -1.147636 1.446348 -5.017434 5.157950 6.167332 8.117249 0.730527 -25.894844 0.000000 0.000000 0.000000 -14.428589 -28.789953 6.828778 -58.402881 -29.674384 7.842247 -41.229804 -65.450146 22.188814 0.000000 0.000000 0.000000 9.000993 20.512426 12.459793 60.268618 50.943842 25.485339 -9.634936 55.679664 0.520618 0.000000 0.000000 0.000000 
0.685707 0.922606 -0.119437 -0.221513 34.224601 -0.817662 9.676602 -2.078761 -22.051672 -8.216944 -1.244382 26.672627 7.279318 13.839289 -0.419046 0.000000 0.000000 0.000000 0.651376 0.717017 -8.271905 0.594466 -2.159356 24.179693 -1.056887 -3.563256 -8.925098 0.000000 0.000000 0.000000 6.879514 -0.669161 4.513887 -1.051043 -0.055781 3.056503 -2.098992 9.516154 3.850828 5.095859 2.407994 -25.347793 0.000000 0.000000 0.000000 -15.832569 -30.725282 6.775186 -57.575113 -25.134460 6.169950 -54.455983 -64.419249 28.838680 0.000000 0.000000 0.000000 9.973136 15.782997 10.865186 59.629276 45.501226 21.726127 -0.931589 60.133611 6.317457 0.000000 0.000000 0.000000 
0.701768 0.921045 -0.115326 -1.892018 35.587595 -2.769777 11.077625 -1.649135 -18.334385 -1.385081 -1.533673 17.666034 2.993925 7.999208 3.408082 0.000000 0.000000 0.000000 2.112192 0.672274 -5.716926 0.174215 -1.931847 22.783643 -2.118552 -7.124577 -6.858360 0.000000 0.000000 0.000000 8.129305 -0.896658 5.467811 0.383363 -0.194538 -0.387936 -3.856823 6.798558 8.121281 7.007843 1.685598 -26.451844 0.000000 0.000000 0.000000 -14.560442 -25.833696 4.719188 -58.295867 -23.914976 4.910448 -57.663856 -62.592187 30.006021 0.000000 0.000000 0.000000 9.537790 18.770630 12.151694 59.929846 44.111570 20.553164 -2.326468 62.258327 5.866368 0.000000 0.000000 0.000000 
0.721738 0.918670 -0.113103 -1.191005 35.361042 -1.999466 11.063888 -1.474948 -16.262388 1.046620 -1.091859 11.617259 0.977257 5.695076 5.217629 0.000000 0.000000 0.000000 0.748750 0.551392 -5.810587 -0.265989 -1.756755 22.982938 -2.222146 -7.317425 -6.540408 0.000000 0.000000 0.000000 7.456745 -0.702983 4.481445 -1.321127 0.604775 -0.678195 -2.712611 8.859875 7.609774 7.424870 1.525685 -25.445520 0.000000 0.000000 0.000000 -16.449863 -27.613228 4.729552 -55.435667 -20.815140 4.043749 -59.453358 -62.030647 30.134833 0.000000 0.000000 0.000000 11.757944 15.753608 11.828331 57.227588 40.750869 16.756808 8.021059 65.510463 13.796705 0.000000 0.000000 0.000000 
0.744964 0.915697 -0.112868 -1.667770 34.781329 -1.477109 11.303528 -1.332671 -14.176267 0.970449 -0.571609 7.152674 -0.024463 5.230229 7.029885 0.000000 0.000000 0.000000 0.062375 0.447013 -5.215700 -0.382083 -1.455722 21.651977 -2.535999 -8.629008 -7.718120 0.000000 0.000000 0.000000 8.095100 -0.557834 2.762851 -1.464228 0.685934 -0.872865 -3.107138 9.588803 7.596047 7.588080 1.120666 -23.174772 0.000000 0.000000 0.000000 -15.888965 -27.566114 4.668108 -55.503152 -20.066314 3.594224 -60.399109 -62.385813 30.747430 0.000000 0.000000 0.000000 13.313930 15.414853 12.471155 55.653918 38.262778 14.186795 11.307065 68.451024 17.350835 0.000000 0.000000 0.000000 
0.768770 0.913476 -0.114184 -1.637710 33.192379 -0.755625 10.694994 -1.220823 -13.006296 0.524990 -0.434756 6.209545 0.900347 6.275566 6.418660 0.000000 0.000000 0.000000 -0.740035 0.399035 -5.437008 -1.277250 -0.999517 21.695718 -2.639613 -8.919217 -8.487760 0.000000 0.000000 0.000000 7.921550 -0.451957 1.915355 -1.954892 0.950822 -1.319046 -2.657364 9.113002 7.804362 7.554529 1.091123 -23.750341 0.000000 0.000000 0.000000 -15.848741 -26.461169 4.493627 -54.910035 -19.834151 3.421204 -60.651719 -63.380268 32.078821 0.000000 0.000000 0.000000 15.438561 14.735161 12.759465 52.697026 37.003187 11.694134 16.315195 72.441818 22.810198 0.000000 0.000000 0.000000 
0.790817 0.912391 -0.116140 -1.616413 31.448144 0.089562 10.194634 -1.145734 -12.477098 -0.215140 -0.386243 6.646150 2.526483 8.022907 5.001372 0.000000 0.000000 0.000000 -1.892120 0.319262 -5.642704 -1.472604 -0.668780 20.743581 -2.727820 -8.922372 -8.554871 0.000000 0.000000 0.000000 7.810298 -0.351512 0.987706 -2.095521 1.047383 -1.668977 -2.627934 8.834438 7.901668 7.383890 0.929082 -23.206842 0.000000 0.000000 0.000000 -15.235367 -26.114431 4.798624 -53.615924 -21.606501 3.991301 -57.498353 -65.292578 31.823944 0.000000 0.000000 0.000000 16.671693 14.081001 12.656996 50.887825 36.524051 10.447974 20.258312 77.128354 28.364849 0.000000 0.000000 0.000000 
0.811246 0.913033 -0.118090 -2.027344 29.781091 0.220974 9.815072 -1.064540 -11.829684 -0.587491 -0.385585 7.287435 3.630037 9.435119 4.321062 0.000000 0.000000 0.000000 -2.524021 0.249233 -5.135343 -1.909994 -0.291000 19.673117 -2.658679 -8.259082 -7.525325 0.000000 0.000000 0.000000 7.612027 -0.278978 0.432572 -2.334743 1.072976 -0.844682 -2.649893 8.617595 7.292492 7.407973 0.643792 -22.624810 0.000000 0.000000 0.000000 -13.639930 -25.851038 5.290315 -52.582935 -25.135949 5.119150 -48.827452 -67.040406 27.534217 0.000000 0.000000 0.000000 17.434295 14.400272 12.801596 48.334265 36.969476 9.704202 13.231925 80.761084 23.782413 0.000000 0.000000 0.000000 
